<svg fill="none" height="512" viewBox="0 0 512 512" width="512" xmlns="http://www.w3.org/2000/svg"><g fill="#1b1e42"><path d="m74.1417 383.904c12.9512-2.261 26.2483-1.527 38.8713 2.146 13.609 3.995 26.627 9.781 38.71 17.209 13.194 8.001 25.903 16.776 38.061 26.278 12.472 9.596 24.943 19.759 37.374 29.76l11.459 9.151c3.846 0 7.734.284 11.661.324 3.928.041 7.815 0 11.702-.243s6.722-.405 10.042-.688c31.197-2.812 61.466-12.093 88.878-27.25 13.382-7.381 25.997-16.075 37.657-25.955 12.704-10.821 24.215-22.97 34.336-36.239 4.562-5.992 8.854-12.228 12.877-18.706-19.498 7.257-39.535 12.97-59.927 17.087-10.872 2.265-21.862 3.914-32.92 4.94-6.052.426-12.128.426-18.18 0-19.474-1.398-38.696-5.234-57.214-11.419-4.049-1.295-8.098-2.672-12.147-4.049-15.266-5.385-30.693-11.661-45.998-18.18-19.234-8.098-38.224-16.682-56.405-24.294-16.821-7.274-34.125-13.375-51.788-18.261-13.9546-4.11-28.6048-5.309-43.042-3.523-6.0867.923-11.9218 3.075-17.1498 6.326-5.2279 3.251-9.7392 7.532-13.259 12.583 2.6994 7.18 5.7902 14.158 9.2724 20.933 7.499 14.961 16.5951 29.067 27.1291 42.07z"/><path d="m32 176.83c18.7474-28.789 40.4912-41.017 63.8141-42.191 25.2669-1.296 52.6389 10.365 80.1319 28.019 7.369 4.697 14.739 9.799 22.108 15.224 19.112 14.051 38.143 27.898 57.052 40.734 24.977 17.579 51.343 33.098 78.837 46.402 25.711 12.147 50.816 19.557 74.949 20.691 24.425 1.434 48.662-5.041 69.118-18.464 4.067-30.496 1.885-61.501-6.412-91.127-8.298-29.626-22.538-57.253-41.853-81.2006-12.956 8.2466-27.931 12.7706-43.285 13.0786-15.742.03-31.384-2.486-46.322-7.45-16.591-5.4173-32.89-11.6882-48.833-18.788-16.641-7.1263-33.607-14.617-50.856-20.9335-17.156-6.3399-34.877-11.031-52.922-14.0098-18.117-3.1905-36.529-4.3854-54.906-3.5631-49.2215 30.205-85.1737 77.9334-100.621 133.5784z"/></g></svg>